<svg width="420" height="452" viewBox="0 0 420 452" fill="none" xmlns="http://www.w3.org/2000/svg">
<path fill-rule="evenodd" clip-rule="evenodd" d="M420 0H0V163.007C8.51126 163.246 15.5024 169.562 16.7883 177.77C17.9556 175.53 20.2992 174 23 174C26.866 174 30 177.134 30 181C30 184.866 26.866 188 23 188C20.1938 188 17.7732 186.349 16.657 183.965C15.0809 191.812 8.25555 197.761 0 197.993V452H420V197.993C411.744 197.761 404.919 191.812 403.343 183.965C402.227 186.349 399.806 188 397 188C393.134 188 390 184.866 390 181C390 177.134 393.134 174 397 174C399.701 174 402.044 175.53 403.212 177.77C404.498 169.562 411.489 163.246 420 163.007V0ZM49 181C49 184.866 46.0899 188 42.5 188C38.9101 188 36 184.866 36 181C36 177.134 38.9101 174 42.5 174C46.0899 174 49 177.134 49 181ZM62 188C65.866 188 69 184.866 69 181C69 177.134 65.866 174 62 174C58.134 174 55 177.134 55 181C55 184.866 58.134 188 62 188ZM89 181C89 184.866 85.866 188 82 188C78.134 188 75 184.866 75 181C75 177.134 78.134 174 82 174C85.866 174 89 177.134 89 181ZM102 188C105.866 188 109 184.866 109 181C109 177.134 105.866 174 102 174C98.134 174 95 177.134 95 181C95 184.866 98.134 188 102 188ZM128 181C128 184.866 124.866 188 121 188C117.134 188 114 184.866 114 181C114 177.134 117.134 174 121 174C124.866 174 128 177.134 128 181ZM141 188C144.866 188 148 184.866 148 181C148 177.134 144.866 174 141 174C137.134 174 134 177.134 134 181C134 184.866 137.134 188 141 188ZM168 181C168 184.866 164.866 188 161 188C157.134 188 154 184.866 154 181C154 177.134 157.134 174 161 174C164.866 174 168 177.134 168 181ZM180.5 188C184.09 188 187 184.866 187 181C187 177.134 184.09 174 180.5 174C176.91 174 174 177.134 174 181C174 184.866 176.91 188 180.5 188ZM207 181C207 184.866 203.866 188 200 188C196.134 188 193 184.866 193 181C193 177.134 196.134 174 200 174C203.866 174 207 177.134 207 181ZM220 188C223.866 188 227 184.866 227 181C227 177.134 223.866 174 220 174C216.134 174 213 177.134 213 181C213 184.866 216.134 188 220 188ZM246 181C246 184.866 243.09 188 239.5 188C235.91 188 233 184.866 233 181C233 177.134 235.91 174 239.5 174C243.09 174 246 177.134 246 181ZM259 188C262.866 188 266 184.866 266 181C266 177.134 262.866 174 259 174C255.134 174 252 177.134 252 181C252 184.866 255.134 188 259 188ZM286 181C286 184.866 282.866 188 279 188C275.134 188 272 184.866 272 181C272 177.134 275.134 174 279 174C282.866 174 286 177.134 286 181ZM299 188C302.866 188 306 184.866 306 181C306 177.134 302.866 174 299 174C295.134 174 292 177.134 292 181C292 184.866 295.134 188 299 188ZM325 181C325 184.866 321.866 188 318 188C314.134 188 311 184.866 311 181C311 177.134 314.134 174 318 174C321.866 174 325 177.134 325 181ZM338 188C341.866 188 345 184.866 345 181C345 177.134 341.866 174 338 174C334.134 174 331 177.134 331 181C331 184.866 334.134 188 338 188ZM365 181C365 184.866 361.866 188 358 188C354.134 188 351 184.866 351 181C351 177.134 354.134 174 358 174C361.866 174 365 177.134 365 181ZM377.5 188C381.09 188 384 184.866 384 181C384 177.134 381.09 174 377.5 174C373.91 174 371 177.134 371 181C371 184.866 373.91 188 377.5 188Z" fill="white"/>
</svg>
