<svg width="456" height="169" viewBox="0 0 456 169" fill="none" xmlns="http://www.w3.org/2000/svg">
<path d="M25.6219 112.086V99.2682H64.537V81.5158H25.6219V69.275H68.5826V50.1768H3.33887V131.184H71.9861V112.086H25.6219Z" fill="black"/>
<path d="M148.596 50.1768H126.313V92.9876L92.9208 50.1768H71.9863V112.086H74.2981V131.184H94.2052V86.771L128.882 131.184H147.762L148.596 129.261V50.1768Z" fill="black"/>
<path d="M74.3623 112.086H71.9863V131.184H74.3623V112.086Z" fill="black"/>
<path d="M214.996 75.7479L203.951 49.6641H182.31L148.597 129.261V131.184H171.393L177.173 116.7H208.446L214.354 131.184H228.418C218.721 120.866 212.749 107.023 212.749 91.7699C212.749 86.1943 213.519 80.8109 214.996 75.7479ZM183.787 99.2682L192.97 76.2606L202.025 99.2682H183.787Z" fill="black"/>
<path d="M147.762 131.184H148.597V129.261L147.762 131.184Z" fill="black"/>
<path d="M14.0634 154.064C10.981 152.846 10.3388 152.525 10.3388 151.628C10.3388 150.731 11.2379 150.026 12.779 150.026C15.0266 150.026 17.0173 150.987 18.6869 152.461L22.5399 148.232C20.4208 146.181 17.3384 144.899 13.4212 144.899C7.96282 144.899 3.98141 148.039 3.98141 152.461C3.98141 155.73 6.22898 157.268 9.76088 158.614C12.9075 159.831 13.4854 160.28 13.4854 161.113C13.4854 162.139 12.458 162.779 10.981 162.779C8.54077 162.779 6.2932 161.754 4.10984 159.767L0 163.869C2.376 166.433 5.97212 167.971 10.3388 167.971C15.8614 167.971 19.8428 164.83 19.8428 160.28C19.8428 156.947 17.5311 155.345 14.0634 154.064Z" fill="#EA2427"/>
<path d="M37.6306 158.806L38.9791 153.935H28.3192L29.2183 150.539H40.9698L42.3826 145.283H24.5305L18.4941 167.586H36.5389L37.9517 162.331H26.0717L26.9707 158.806H37.6306Z" fill="#EA2427"/>
<path d="M53.2357 144.835C44.6307 144.835 39.3008 151.692 39.3008 158.229C39.3008 164.189 43.6675 167.971 49.8323 167.971C54.0705 167.971 57.0245 166.24 59.1436 163.805L54.9696 160.088C53.5568 161.498 52.144 162.331 50.2176 162.331C47.6489 162.331 45.7866 160.6 45.7866 157.781C45.7866 153.871 48.7406 150.41 52.4651 150.41C54.6485 150.41 56.0612 151.436 56.9603 153.294L61.9691 150.603C62.0334 150.475 62.1618 150.346 62.226 150.218C60.8132 146.95 57.7309 144.835 53.2357 144.835Z" fill="#EA2427"/>
<path d="M72.95 144.899C68.3906 144.899 64.6019 147.078 62.2259 150.282C62.2259 150.346 62.2901 150.41 62.2901 150.475L61.969 150.667C60.492 152.846 59.6572 155.345 59.6572 157.973C59.6572 163.613 63.9597 167.971 70.3171 167.971C78.0873 167.971 83.6099 161.626 83.6099 154.897C83.5457 149.193 79.2432 144.899 72.95 144.899ZM70.8309 162.459C67.6843 162.459 65.9504 160.344 65.9504 157.524C65.9504 154.192 68.5191 150.41 72.3721 150.41C75.5187 150.41 77.2525 152.525 77.2525 155.345C77.2525 158.678 74.7481 162.459 70.8309 162.459Z" fill="#EA2427"/>
<path d="M62.2256 150.282C62.1614 150.41 62.033 150.539 61.9688 150.667L62.2898 150.474C62.2898 150.41 62.2256 150.346 62.2256 150.282Z" fill="#EA2427"/>
<path d="M99.9206 145.283L91.123 159.319L89.9029 145.283H83.1602L86.1141 167.714H91.8936L106.406 145.988L106.599 145.283H99.9206Z" fill="#EA2427"/>
<path d="M106.856 145.283L106.406 145.988L100.627 167.586H106.792L112.764 145.283H106.856Z" fill="#EA2427"/>
<path d="M106.599 145.283L106.406 145.988L106.856 145.283H106.599Z" fill="#EA2427"/>
<path d="M122.139 154.064C119.057 152.846 118.414 152.525 118.414 151.628C118.414 150.731 119.314 150.026 120.855 150.026C123.102 150.026 125.093 150.987 126.763 152.461L130.616 148.232C128.496 146.181 125.414 144.899 121.497 144.899C116.038 144.899 112.057 148.039 112.057 152.461C112.057 155.73 114.305 157.268 117.837 158.614C120.983 159.831 121.561 160.28 121.561 161.113C121.561 162.139 120.534 162.779 119.057 162.779C116.616 162.779 114.369 161.754 112.186 159.767L108.204 163.869C110.58 166.433 114.176 167.971 118.543 167.971C124.066 167.971 128.047 164.83 128.047 160.28C127.919 156.947 125.542 155.345 122.139 154.064Z" fill="black"/>
<path d="M139.863 145.283H132.542L126.57 167.522H132.799L134.533 161.113H138.193C144.808 161.113 149.303 157.652 149.303 152.141C149.303 150.282 148.725 148.744 147.569 147.591C145.899 146.053 143.523 145.283 139.863 145.283ZM138.129 156.371H135.817L137.359 150.475H139.67C140.826 150.475 141.725 150.731 142.303 151.308C142.689 151.692 142.945 152.269 142.945 152.846C142.945 155.025 141.147 156.371 138.129 156.371Z" fill="black"/>
<path d="M332.833 48.2542C325.513 48.2542 318.706 49.8564 312.798 52.7403C317.486 57.8674 321.339 63.8275 323.907 70.3645C326.476 69.1469 329.366 68.506 332.576 68.506C344.97 68.506 353.447 78.696 353.447 90.36V90.6164C353.447 102.28 345.227 112.214 332.833 112.214C329.944 112.214 327.247 111.637 324.871 110.612C322.495 117.341 318.963 123.494 314.467 128.813C319.926 131.12 326.091 132.466 332.641 132.466C357.685 132.466 376.436 113.624 376.436 90.36V90.1037C376.372 66.9038 357.813 48.2542 332.833 48.2542Z" fill="black"/>
<path d="M433.717 49.9204V92.6672L400.388 49.9204H379.39V130.864H401.673V86.4506L436.285 130.864H456V49.9204H433.717Z" fill="black"/>
<path d="M243.958 76.3888C249.288 67.1601 259.306 60.9435 270.736 60.9435V38C250.829 38 233.426 48.8309 224.051 64.917L243.958 76.3888Z" fill="#F9A51A"/>
<path d="M270.672 122.66V145.604C286.79 145.604 301.239 138.49 311.128 127.339C304.064 123.622 298.413 118.11 294.496 111.445C288.845 118.238 280.304 122.66 270.672 122.66Z" fill="#EC1A3B"/>
<path d="M311.128 127.275C313.44 124.647 315.559 121.763 317.357 118.623L297.45 107.151C296.615 108.625 295.588 110.035 294.561 111.317C298.414 118.046 304.129 123.622 311.128 127.275Z" fill="#EC1A3B"/>
<path d="M270.672 38V60.9435C279.791 60.9435 288.01 64.917 293.661 71.1976C297.257 64.3402 302.716 58.5723 309.459 54.5347C299.698 44.3447 285.955 38 270.672 38Z" fill="#F26F21"/>
<path d="M293.661 71.1976C295.074 72.7998 296.358 74.5301 297.45 76.3887L317.357 64.9169C315.174 61.1357 312.541 57.675 309.523 54.5347C302.716 58.5722 297.257 64.3401 293.661 71.1976Z" fill="#F26F21"/>
<path d="M243.958 107.215L237.857 110.74L231.436 114.457L238.499 131.184H234.004C243.637 140.156 256.544 145.604 270.672 145.604V122.66C259.305 122.66 249.288 116.444 243.958 107.215Z" fill="#0060AE"/>
<path d="M231.436 114.457L224.051 118.687C226.748 123.301 230.151 127.531 234.004 131.184H238.499L231.436 114.457Z" fill="#0060AE"/>
<path d="M237.858 110.74L243.958 107.215C238.243 97.3456 238.628 85.6174 243.958 76.3888L224.051 64.917C220.969 70.2363 218.849 76.0683 217.758 82.0926L231.436 114.393L237.858 110.74Z" fill="#FFD000"/>
<path d="M231.435 114.457L217.693 82.0925C215.445 94.2052 217.372 107.151 223.986 118.687L231.435 114.457Z" fill="#FFD000"/>
<path d="M243.958 76.3888L224.051 64.917L243.958 76.3888Z" fill="#FFD000"/>
<path d="M231.436 114.457L224.051 118.687L231.436 114.457Z" fill="#FFD000"/>
<path d="M9.744 3.8H1.44V15H9.824V13.24H3.408V10.232H9.024V8.472H3.408V5.56H9.744V3.8ZM13.8708 10.232C13.8708 8.92 14.6548 8.136 15.7748 8.136C16.9268 8.136 17.5828 8.888 17.5828 10.2V15H19.5188V9.624C19.5188 7.656 18.4148 6.376 16.5108 6.376C15.1988 6.376 14.4148 7.064 13.8708 7.864V6.552H11.9348V15H13.8708V10.232ZM29.2166 13.608L28.0486 12.456C27.4406 13.08 26.7686 13.512 25.8566 13.512C24.3686 13.512 23.3286 12.296 23.3286 10.776C23.3286 9.288 24.3526 8.072 25.7606 8.072C26.7366 8.072 27.3606 8.504 27.9526 9.128L29.1526 7.832C28.3686 6.968 27.3766 6.376 25.7766 6.376C23.2486 6.376 21.3926 8.392 21.3926 10.808C21.3926 13.224 23.2486 15.192 25.7606 15.192C27.4086 15.192 28.3846 14.536 29.2166 13.608ZM39.3069 10.776C39.3069 8.344 37.4029 6.376 34.8109 6.376C32.2189 6.376 30.2989 8.376 30.2989 10.808C30.2989 13.224 32.2029 15.192 34.7789 15.192C37.3869 15.192 39.3069 13.192 39.3069 10.776ZM37.3709 10.808C37.3709 12.296 36.3789 13.512 34.8109 13.512C33.3069 13.512 32.2349 12.28 32.2349 10.776C32.2349 9.288 33.2269 8.072 34.7789 8.072C36.2989 8.072 37.3709 9.304 37.3709 10.808ZM43.2145 10.232C43.2145 8.92 43.9985 8.136 45.1185 8.136C46.2705 8.136 46.9265 8.888 46.9265 10.2V15H48.8625V9.624C48.8625 7.656 47.7585 6.376 45.8545 6.376C44.5425 6.376 43.7585 7.064 43.2145 7.864V6.552H41.2785V15H43.2145V10.232ZM53.5364 8.216H55.8084V6.552H53.5364V4.232H51.6004V6.552H50.5284V8.216H51.6004V12.664C51.6004 14.52 52.6084 15.144 54.0324 15.144C54.7524 15.144 55.2964 14.984 55.7764 14.712V13.128C55.3924 13.32 55.0084 13.416 54.5764 13.416C53.9204 13.416 53.5364 13.112 53.5364 12.36V8.216ZM59.6989 11.784C59.6989 9.544 60.8829 8.44 62.5789 8.44H62.6909V6.392C61.2029 6.328 60.2269 7.192 59.6989 8.456V6.552H57.7629V15H59.6989V11.784ZM72.635 10.776C72.635 8.344 70.731 6.376 68.139 6.376C65.547 6.376 63.627 8.376 63.627 10.808C63.627 13.224 65.531 15.192 68.107 15.192C70.715 15.192 72.635 13.192 72.635 10.776ZM70.699 10.808C70.699 12.296 69.707 13.512 68.139 13.512C66.635 13.512 65.563 12.28 65.563 10.776C65.563 9.288 66.555 8.072 68.107 8.072C69.627 8.072 70.699 9.304 70.699 10.808ZM87.4515 11.544L81.4515 3.8H79.6275V15H81.5635V7.032L87.7395 15H89.3875V3.8H87.4515V11.544ZM99.1321 15V9.992C99.1321 7.736 97.9161 6.424 95.4201 6.424C94.0441 6.424 93.1321 6.712 92.2041 7.128L92.7321 8.68C93.5001 8.36 94.2041 8.152 95.1481 8.152C96.4921 8.152 97.2281 8.792 97.2281 9.96V10.168C96.5721 9.96 95.9161 9.816 94.8921 9.816C92.9241 9.816 91.4681 10.712 91.4681 12.536V12.568C91.4681 14.264 92.8761 15.176 94.4761 15.176C95.7561 15.176 96.6361 14.648 97.2121 13.96V15H99.1321ZM97.2601 11.944C97.2601 13 96.3001 13.72 95.0201 13.72C94.1081 13.72 93.3881 13.272 93.3881 12.472V12.44C93.3881 11.576 94.1081 11.08 95.3241 11.08C96.0761 11.08 96.7641 11.224 97.2601 11.416V11.944ZM108.795 13.608L107.627 12.456C107.019 13.08 106.347 13.512 105.435 13.512C103.947 13.512 102.907 12.296 102.907 10.776C102.907 9.288 103.931 8.072 105.339 8.072C106.315 8.072 106.939 8.504 107.531 9.128L108.731 7.832C107.947 6.968 106.955 6.376 105.355 6.376C102.827 6.376 100.971 8.392 100.971 10.808C100.971 13.224 102.827 15.192 105.339 15.192C106.987 15.192 107.963 14.536 108.795 13.608ZM112.687 5.256V3.416H110.607V5.256H112.687ZM112.623 15V6.552H110.687V15H112.623ZM123.698 10.776C123.698 8.344 121.794 6.376 119.202 6.376C116.61 6.376 114.69 8.376 114.69 10.808C114.69 13.224 116.594 15.192 119.17 15.192C121.778 15.192 123.698 13.192 123.698 10.776ZM121.762 10.808C121.762 12.296 120.77 13.512 119.202 13.512C117.698 13.512 116.626 12.28 116.626 10.776C116.626 9.288 117.618 8.072 119.17 8.072C120.69 8.072 121.762 9.304 121.762 10.808ZM127.605 10.232C127.605 8.92 128.389 8.136 129.509 8.136C130.661 8.136 131.317 8.888 131.317 10.2V15H133.253V9.624C133.253 7.656 132.149 6.376 130.245 6.376C128.933 6.376 128.149 7.064 127.605 7.864V6.552H125.669V15H127.605V10.232ZM142.679 15V9.992C142.679 7.736 141.463 6.424 138.967 6.424C137.591 6.424 136.679 6.712 135.751 7.128L136.279 8.68C137.047 8.36 137.751 8.152 138.695 8.152C140.039 8.152 140.775 8.792 140.775 9.96V10.168C140.119 9.96 139.463 9.816 138.439 9.816C136.471 9.816 135.015 10.712 135.015 12.536V12.568C135.015 14.264 136.423 15.176 138.023 15.176C139.303 15.176 140.183 14.648 140.759 13.96V15H142.679ZM140.807 11.944C140.807 13 139.847 13.72 138.567 13.72C137.655 13.72 136.935 13.272 136.935 12.472V12.44C136.935 11.576 137.655 11.08 138.871 11.08C139.623 11.08 140.311 11.224 140.807 11.416V11.944ZM147.03 15V3.32H145.094V15H147.03ZM162.661 15V3.32H160.725V7.864C160.117 7.08 159.237 6.376 157.845 6.376C155.829 6.376 153.925 7.96 153.925 10.776C153.925 13.592 155.861 15.176 157.845 15.176C159.221 15.176 160.101 14.472 160.725 13.592V15H162.661ZM160.757 10.776C160.757 12.424 159.605 13.496 158.309 13.496C156.997 13.496 155.877 12.44 155.877 10.776C155.877 9.08 156.981 8.056 158.309 8.056C159.605 8.056 160.757 9.128 160.757 10.776ZM173.619 10.776C173.619 8.344 171.715 6.376 169.123 6.376C166.531 6.376 164.611 8.376 164.611 10.808C164.611 13.224 166.515 15.192 169.091 15.192C171.699 15.192 173.619 13.192 173.619 10.776ZM171.683 10.808C171.683 12.296 170.691 13.512 169.123 13.512C167.619 13.512 166.547 12.28 166.547 10.776C166.547 9.288 167.539 8.072 169.091 8.072C170.611 8.072 171.683 9.304 171.683 10.808ZM181.623 12.504V12.472C181.623 10.952 180.231 10.392 178.999 10.008C178.007 9.688 177.095 9.432 177.095 8.824V8.792C177.095 8.296 177.527 7.944 178.279 7.944C178.983 7.944 179.847 8.248 180.663 8.744L181.431 7.368C180.535 6.776 179.383 6.408 178.327 6.408C176.647 6.408 175.319 7.384 175.319 8.984V9.016C175.319 10.632 176.711 11.144 177.959 11.496C178.951 11.8 179.847 12.024 179.847 12.68V12.712C179.847 13.272 179.367 13.624 178.535 13.624C177.671 13.624 176.679 13.272 175.767 12.584L174.903 13.896C175.959 14.728 177.287 15.16 178.487 15.16C180.247 15.16 181.623 14.28 181.623 12.504ZM194.404 3.72H192.58L187.652 15H189.668L190.82 12.296H196.116L197.252 15H199.332L194.404 3.72ZM195.396 10.552H191.54L193.46 6.072L195.396 10.552ZM208.926 15V3.32H206.99V7.864C206.382 7.08 205.502 6.376 204.11 6.376C202.094 6.376 200.19 7.96 200.19 10.776C200.19 13.592 202.126 15.176 204.11 15.176C205.486 15.176 206.366 14.472 206.99 13.592V15H208.926ZM207.022 10.776C207.022 12.424 205.87 13.496 204.574 13.496C203.262 13.496 202.142 12.44 202.142 10.776C202.142 9.08 203.246 8.056 204.574 8.056C205.87 8.056 207.022 9.128 207.022 10.776ZM218.365 7.864C217.917 6.968 217.069 6.376 215.853 6.376C214.557 6.376 213.821 7.08 213.277 7.832V6.552H211.341V15H213.277V10.248C213.277 8.936 214.013 8.136 215.085 8.136C216.157 8.136 216.797 8.872 216.797 10.184V15H218.733V10.232C218.733 8.872 219.485 8.136 220.541 8.136C221.629 8.136 222.253 8.856 222.253 10.2V15H224.189V9.608C224.189 7.544 223.069 6.376 221.229 6.376C219.949 6.376 219.053 6.968 218.365 7.864ZM228.656 5.256V3.416H226.576V5.256H228.656ZM228.592 15V6.552H226.656V15H228.592ZM233.058 10.232C233.058 8.92 233.842 8.136 234.962 8.136C236.114 8.136 236.77 8.888 236.77 10.2V15H238.706V9.624C238.706 7.656 237.602 6.376 235.698 6.376C234.386 6.376 233.602 7.064 233.058 7.864V6.552H231.122V15H233.058V10.232ZM243.156 5.256V3.416H241.076V5.256H243.156ZM243.092 15V6.552H241.156V15H243.092ZM251.654 12.504V12.472C251.654 10.952 250.262 10.392 249.03 10.008C248.038 9.688 247.126 9.432 247.126 8.824V8.792C247.126 8.296 247.558 7.944 248.31 7.944C249.014 7.944 249.878 8.248 250.694 8.744L251.462 7.368C250.566 6.776 249.414 6.408 248.358 6.408C246.678 6.408 245.35 7.384 245.35 8.984V9.016C245.35 10.632 246.742 11.144 247.99 11.496C248.982 11.8 249.878 12.024 249.878 12.68V12.712C249.878 13.272 249.398 13.624 248.566 13.624C247.702 13.624 246.71 13.272 245.798 12.584L244.934 13.896C245.99 14.728 247.318 15.16 248.518 15.16C250.278 15.16 251.654 14.28 251.654 12.504ZM255.802 8.216H258.074V6.552H255.802V4.232H253.866V6.552H252.794V8.216H253.866V12.664C253.866 14.52 254.874 15.144 256.298 15.144C257.018 15.144 257.562 14.984 258.042 14.712V13.128C257.658 13.32 257.274 13.416 256.842 13.416C256.186 13.416 255.802 13.112 255.802 12.36V8.216ZM261.965 11.784C261.965 9.544 263.149 8.44 264.845 8.44H264.957V6.392C263.469 6.328 262.493 7.192 261.965 8.456V6.552H260.029V15H261.965V11.784ZM273.32 15V9.992C273.32 7.736 272.104 6.424 269.608 6.424C268.232 6.424 267.32 6.712 266.392 7.128L266.92 8.68C267.688 8.36 268.392 8.152 269.336 8.152C270.68 8.152 271.416 8.792 271.416 9.96V10.168C270.76 9.96 270.104 9.816 269.08 9.816C267.112 9.816 265.656 10.712 265.656 12.536V12.568C265.656 14.264 267.064 15.176 268.664 15.176C269.944 15.176 270.824 14.648 271.4 13.96V15H273.32ZM271.448 11.944C271.448 13 270.488 13.72 269.208 13.72C268.296 13.72 267.576 13.272 267.576 12.472V12.44C267.576 11.576 268.296 11.08 269.512 11.08C270.264 11.08 270.952 11.224 271.448 11.416V11.944ZM283.926 15V3.32H281.99V7.864C281.382 7.08 280.502 6.376 279.11 6.376C277.094 6.376 275.19 7.96 275.19 10.776C275.19 13.592 277.126 15.176 279.11 15.176C280.486 15.176 281.366 14.472 281.99 13.592V15H283.926ZM282.022 10.776C282.022 12.424 280.87 13.496 279.574 13.496C278.262 13.496 277.142 12.44 277.142 10.776C277.142 9.08 278.246 8.056 279.574 8.056C280.87 8.056 282.022 9.128 282.022 10.776ZM294.885 10.776C294.885 8.344 292.981 6.376 290.389 6.376C287.797 6.376 285.877 8.376 285.877 10.808C285.877 13.224 287.781 15.192 290.357 15.192C292.965 15.192 294.885 13.192 294.885 10.776ZM292.949 10.808C292.949 12.296 291.957 13.512 290.389 13.512C288.885 13.512 287.813 12.28 287.813 10.776C287.813 9.288 288.805 8.072 290.357 8.072C291.877 8.072 292.949 9.304 292.949 10.808ZM298.793 11.784C298.793 9.544 299.977 8.44 301.673 8.44H301.785V6.392C300.297 6.328 299.321 7.192 298.793 8.456V6.552H296.857V15H298.793V11.784ZM304.657 11.464H310.865C310.881 11.272 310.897 11.112 310.897 10.936C310.897 8.488 309.537 6.376 306.849 6.376C304.433 6.376 302.721 8.36 302.721 10.792C302.721 13.416 304.609 15.192 307.057 15.192C308.609 15.192 309.713 14.568 310.513 13.608L309.377 12.6C308.705 13.256 308.033 13.608 307.089 13.608C305.841 13.608 304.881 12.84 304.657 11.464ZM304.641 10.184C304.817 8.872 305.649 7.96 306.833 7.96C308.113 7.96 308.849 8.936 308.977 10.184H304.641ZM318.873 12.504V12.472C318.873 10.952 317.481 10.392 316.249 10.008C315.257 9.688 314.345 9.432 314.345 8.824V8.792C314.345 8.296 314.777 7.944 315.529 7.944C316.233 7.944 317.097 8.248 317.913 8.744L318.681 7.368C317.785 6.776 316.633 6.408 315.577 6.408C313.897 6.408 312.569 7.384 312.569 8.984V9.016C312.569 10.632 313.961 11.144 315.209 11.496C316.201 11.8 317.097 12.024 317.097 12.68V12.712C317.097 13.272 316.617 13.624 315.785 13.624C314.921 13.624 313.929 13.272 313.017 12.584L312.153 13.896C313.209 14.728 314.537 15.16 315.737 15.16C317.497 15.16 318.873 14.28 318.873 12.504ZM333.942 15V3.32H332.006V7.864C331.398 7.08 330.518 6.376 329.126 6.376C327.11 6.376 325.206 7.96 325.206 10.776C325.206 13.592 327.142 15.176 329.126 15.176C330.502 15.176 331.382 14.472 332.006 13.592V15H333.942ZM332.038 10.776C332.038 12.424 330.886 13.496 329.59 13.496C328.278 13.496 327.158 12.44 327.158 10.776C327.158 9.08 328.262 8.056 329.59 8.056C330.886 8.056 332.038 9.128 332.038 10.776ZM337.829 11.464H344.037C344.053 11.272 344.069 11.112 344.069 10.936C344.069 8.488 342.709 6.376 340.021 6.376C337.605 6.376 335.893 8.36 335.893 10.792C335.893 13.416 337.781 15.192 340.229 15.192C341.781 15.192 342.885 14.568 343.685 13.608L342.549 12.6C341.877 13.256 341.205 13.608 340.261 13.608C339.013 13.608 338.053 12.84 337.829 11.464ZM337.813 10.184C337.989 8.872 338.821 7.96 340.005 7.96C341.285 7.96 342.021 8.936 342.149 10.184H337.813ZM360.778 13.208L359.514 11.928C358.554 12.824 357.674 13.384 356.298 13.384C354.154 13.384 352.602 11.592 352.602 9.384C352.602 7.176 354.154 5.416 356.298 5.416C357.578 5.416 358.538 5.976 359.434 6.808L360.698 5.352C359.626 4.328 358.378 3.608 356.314 3.608C352.922 3.608 350.538 6.216 350.538 9.416C350.538 12.648 352.97 15.192 356.234 15.192C358.33 15.192 359.61 14.424 360.778 13.208ZM371.01 10.776C371.01 8.344 369.106 6.376 366.514 6.376C363.922 6.376 362.002 8.376 362.002 10.808C362.002 13.224 363.906 15.192 366.482 15.192C369.09 15.192 371.01 13.192 371.01 10.776ZM369.074 10.808C369.074 12.296 368.082 13.512 366.514 13.512C365.01 13.512 363.938 12.28 363.938 10.776C363.938 9.288 364.93 8.072 366.482 8.072C368.002 8.072 369.074 9.304 369.074 10.808ZM374.918 10.232C374.918 8.92 375.702 8.136 376.822 8.136C377.974 8.136 378.63 8.888 378.63 10.2V15H380.566V9.624C380.566 7.656 379.462 6.376 377.558 6.376C376.246 6.376 375.462 7.064 374.918 7.864V6.552H372.982V15H374.918V10.232ZM391.208 15V3.32H389.272V7.864C388.664 7.08 387.784 6.376 386.391 6.376C384.376 6.376 382.472 7.96 382.472 10.776C382.472 13.592 384.408 15.176 386.391 15.176C387.768 15.176 388.648 14.472 389.272 13.592V15H391.208ZM389.304 10.776C389.304 12.424 388.152 13.496 386.856 13.496C385.544 13.496 384.424 12.44 384.424 10.776C384.424 9.08 385.528 8.056 386.856 8.056C388.152 8.056 389.304 9.128 389.304 10.776ZM402.166 10.776C402.166 8.344 400.262 6.376 397.67 6.376C395.078 6.376 393.158 8.376 393.158 10.808C393.158 13.224 395.062 15.192 397.638 15.192C400.246 15.192 402.166 13.192 402.166 10.776ZM400.23 10.808C400.23 12.296 399.238 13.512 397.67 13.512C396.166 13.512 395.094 12.28 395.094 10.776C395.094 9.288 396.086 8.072 397.638 8.072C399.158 8.072 400.23 9.304 400.23 10.808ZM411.162 7.864C410.714 6.968 409.866 6.376 408.65 6.376C407.354 6.376 406.618 7.08 406.074 7.832V6.552H404.138V15H406.074V10.248C406.074 8.936 406.81 8.136 407.882 8.136C408.954 8.136 409.594 8.872 409.594 10.184V15H411.53V10.232C411.53 8.872 412.282 8.136 413.338 8.136C414.426 8.136 415.05 8.856 415.05 10.2V15H416.986V9.608C416.986 7.544 415.866 6.376 414.026 6.376C412.746 6.376 411.85 6.968 411.162 7.864ZM421.389 15V6.552H419.453V15H421.389ZM421.085 5.48L423.037 3.64L421.277 2.856L419.581 5.48H421.085ZM425.855 10.232C425.855 8.92 426.639 8.136 427.759 8.136C428.911 8.136 429.567 8.888 429.567 10.2V15H431.503V9.624C431.503 7.656 430.399 6.376 428.495 6.376C427.183 6.376 426.399 7.064 425.855 7.864V6.552H423.919V15H425.855V10.232ZM435.953 5.256V3.416H433.873V5.256H435.953ZM435.889 15V6.552H433.953V15H435.889ZM446.963 10.776C446.963 8.344 445.059 6.376 442.467 6.376C439.875 6.376 437.955 8.376 437.955 10.808C437.955 13.224 439.859 15.192 442.435 15.192C445.043 15.192 446.963 13.192 446.963 10.776ZM445.027 10.808C445.027 12.296 444.035 13.512 442.467 13.512C440.963 13.512 439.891 12.28 439.891 10.776C439.891 9.288 440.883 8.072 442.435 8.072C443.955 8.072 445.027 9.304 445.027 10.808ZM454.967 12.504V12.472C454.967 10.952 453.575 10.392 452.343 10.008C451.351 9.688 450.439 9.432 450.439 8.824V8.792C450.439 8.296 450.871 7.944 451.623 7.944C452.327 7.944 453.191 8.248 454.007 8.744L454.775 7.368C453.879 6.776 452.727 6.408 451.671 6.408C449.991 6.408 448.663 7.384 448.663 8.984V9.016C448.663 10.632 450.055 11.144 451.303 11.496C452.295 11.8 453.191 12.024 453.191 12.68V12.712C453.191 13.272 452.711 13.624 451.879 13.624C451.015 13.624 450.023 13.272 449.111 12.584L448.247 13.896C449.303 14.728 450.631 15.16 451.831 15.16C453.591 15.16 454.967 14.28 454.967 12.504Z" fill="black"/>
</svg>
