<svg width="50" height="50" viewBox="0 0 50 50" fill="none" xmlns="http://www.w3.org/2000/svg">
<rect width="50" height="50" rx="12" fill="#1C1B1B"/>
<path d="M36.2923 23.2218L35.0888 30.9624H28.7638V48.954H28.7652V50H24.5387C24.5333 50 24.5278 50 24.5224 50C24.5176 50 24.5128 50 24.5081 50H20.2924V49.6765C20.2886 49.6759 20.2848 49.6753 20.281 49.6747V30.9624H13.3887V23.2218H20.281V17.3222C20.281 10.6109 24.3336 6.90381 30.534 6.90381C33.504 6.90381 36.6104 7.42682 36.6104 7.42682V14.0168H33.1876C29.8155 14.0168 28.7638 16.0808 28.7638 18.1988V23.2218H36.2923Z" fill="white"/>
</svg>
