<svg width="50" height="50" viewBox="0 0 50 50" fill="none" xmlns="http://www.w3.org/2000/svg">
<path d="M38.2812 0H11.7188C5.24666 0 0 5.24666 0 11.7188V38.2812C0 44.7533 5.24666 50 11.7188 50H38.2812C44.7533 50 50 44.7533 50 38.2812V11.7188C50 5.24666 44.7533 0 38.2812 0Z" fill="white"/>
<path d="M38.2812 0H11.7188C5.24666 0 0 5.24666 0 11.7188V38.2812C0 44.7533 5.24666 50 11.7188 50H38.2812C44.7533 50 50 44.7533 50 38.2812V11.7188C50 5.24666 44.7533 0 38.2812 0Z" fill="#1C1B1B"/>
<path d="M36.343 43H42.197C42.4091 43 42.6126 42.9156 42.7626 42.7653C42.9126 42.6151 42.9969 42.4113 42.997 42.1988L43 29.8087C43 23.3328 41.607 18.3551 34.0524 18.3551C31.1806 18.2481 28.4724 19.7311 27.011 22.2074C27.0039 22.2194 26.993 22.2288 26.98 22.2341C26.9671 22.2393 26.9528 22.2402 26.9393 22.2365C26.9258 22.2329 26.9139 22.2249 26.9053 22.2138C26.8968 22.2027 26.8921 22.1892 26.892 22.1752V19.7543C26.892 19.5418 26.8077 19.3379 26.6577 19.1876C26.5077 19.0374 26.3042 18.9529 26.092 18.9529H20.5366C20.3244 18.9529 20.1209 19.0374 19.9709 19.1876C19.8209 19.3379 19.7366 19.5418 19.7366 19.7543V42.1976C19.7366 42.4101 19.8209 42.614 19.9709 42.7643C20.1209 42.9146 20.3244 42.999 20.5366 42.999H26.3902C26.6024 42.999 26.8059 42.9146 26.9559 42.7643C27.1059 42.614 27.1902 42.4101 27.1902 42.1976V31.1036C27.1902 27.9667 27.7842 24.9288 31.6664 24.9288C35.4934 24.9288 35.543 28.5183 35.543 31.3067V42.1986C35.543 42.4111 35.6273 42.615 35.7773 42.7653C35.9273 42.9156 36.1308 43 36.343 43ZM7 11.333C7 13.7101 8.9534 15.666 11.3264 15.666C13.6988 15.6658 15.651 13.7087 15.651 11.3322C15.6506 8.95562 13.6982 7 11.3256 7C8.9524 7 7 8.95602 7 11.333ZM8.3918 43H14.2532C14.4654 43 14.6689 42.9156 14.8189 42.7653C14.9689 42.615 15.0532 42.4111 15.0532 42.1986V19.7543C15.0532 19.5418 14.9689 19.3379 14.8189 19.1876C14.6689 19.0374 14.4654 18.9529 14.2532 18.9529H8.3918C8.17963 18.9529 7.97614 19.0374 7.82611 19.1876C7.67609 19.3379 7.5918 19.5418 7.5918 19.7543V42.1986C7.5918 42.4111 7.67609 42.615 7.82611 42.7653C7.97614 42.9156 8.17963 43 8.3918 43Z" fill="white"/>
</svg>
